<?xml version="1.0" encoding="UTF-8" standalone="no"?>
<svg
   xmlns:osb="http://www.openswatchbook.org/uri/2009/osb"
   xmlns:dc="http://purl.org/dc/elements/1.1/"
   xmlns:cc="http://creativecommons.org/ns#"
   xmlns:rdf="http://www.w3.org/1999/02/22-rdf-syntax-ns#"
   xmlns:svg="http://www.w3.org/2000/svg"
   xmlns="http://www.w3.org/2000/svg"
   xmlns:sodipodi="http://sodipodi.sourceforge.net/DTD/sodipodi-0.dtd"
   xmlns:inkscape="http://www.inkscape.org/namespaces/inkscape"
   inkscape:export-ydpi="24.000002"
   inkscape:export-xdpi="24.000002"
   inkscape:export-filename="/Users/aalonzi/Desktop/matag-64.png"
   sodipodi:docname="matag.svg"
   inkscape:version="1.0rc1 (09960d6, 2020-04-09)"
   id="svg8"
   version="1.1"
   viewBox="0 0 67.733331 67.733335"
   height="256"
   width="256">
  <defs
     id="defs2">
    <linearGradient
       osb:paint="gradient"
       id="linearGradient1060">
      <stop
         id="stop1056"
         offset="0"
         style="stop-color:#ffffff;stop-opacity:1;" />
      <stop
         id="stop1058"
         offset="1"
         style="stop-color:#ffffff;stop-opacity:0;" />
    </linearGradient>
    <filter
       height="1.0000025"
       y="-1.264304e-06"
       width="1.0000023"
       x="-1.1419209e-06"
       id="filter954"
       style="color-interpolation-filters:sRGB"
       inkscape:collect="always">
      <feGaussianBlur
         id="feGaussianBlur956"
         stdDeviation="7.7421642e-06"
         inkscape:collect="always" />
    </filter>
  </defs>
  <sodipodi:namedview
     inkscape:snap-bbox="true"
     inkscape:snap-global="false"
     inkscape:snap-nodes="true"
     inkscape:object-nodes="false"
     inkscape:snap-others="true"
     inkscape:snap-grids="true"
     inkscape:snap-to-guides="true"
     inkscape:window-maximized="0"
     inkscape:window-y="24"
     inkscape:window-x="0"
     inkscape:window-height="941"
     inkscape:window-width="1680"
     units="px"
     showgrid="false"
     inkscape:document-rotation="0"
     inkscape:current-layer="layer2"
     inkscape:document-units="px"
     inkscape:cy="131.87029"
     inkscape:cx="148.42418"
     inkscape:zoom="2.631153"
     inkscape:pageshadow="2"
     inkscape:pageopacity="0.0"
     borderopacity="1.0"
     bordercolor="#666666"
     pagecolor="#ffffff"
     id="base" />
  <metadata
     id="metadata5">
    <rdf:RDF>
      <cc:Work
         rdf:about="">
        <dc:format>image/svg+xml</dc:format>
        <dc:type
           rdf:resource="http://purl.org/dc/dcmitype/StillImage" />
        <dc:title />
      </cc:Work>
    </rdf:RDF>
  </metadata>
  <g
     style="display:inline"
     inkscape:label="BackgroundSwamp"
     id="layer2"
     inkscape:groupmode="layer">
    <circle
       r="33.866665"
       cy="33.866665"
       cx="33.866665"
       id="path839"
       style="display:inline;fill:#000000;fill-opacity:1;fill-rule:evenodd;stroke-width:0.264583" />
    <path
       inkscape:connector-curvature="0"
       transform="scale(0.26458333)"
       d="m 132.83594,21.433594 c -1.55964,-0.0099 -3.13412,0.03111 -4.72656,0.128906 -25.29972,-1.062951 -49.372261,9.42456 -65.080083,22.125 1.655618,1.830592 0.982201,8.194126 4.832031,11.939453 3.849827,3.745327 10.679688,3.021484 10.679688,3.021485 l -12.451172,0.96289 c 0,0 -5.162467,-10.373531 -7.867188,-12.05664 -25.877318,31.601097 -29.275207,53.510962 -31.83789,66.585932 0.05681,19.79246 1.454267,42.48745 62.757812,41.38672 l -2.359375,60.01172 c 0.461737,3.73155 6.973694,8.51835 10.623047,10.12305 2.60202,-0.64681 6.19442,-2.16874 7.75391,-4.90234 l -0.40821,-37.17383 2.44922,-0.40821 0.81641,31.45508 c 3.67345,6.11442 7.34607,4.54495 11.01953,5.71875 0,0 6.17059,-1.90015 7.34766,-5.31054 l -0.40821,-31.86329 2.61133,-0.8164 v -0.10742 l 2.12891,0.66797 -0.0996,27.23437 18.02148,-4.73047 -0.72656,-22.19531 3.98633,0.0996 -0.40821,37.17383 c 1.55639,2.73362 5.14339,4.25552 7.74024,4.90234 3.64209,-1.6047 8.90832,-4.84852 9.36914,-8.58008 l -0.50586,-64.64258 c 61.18164,1.10073 61.95889,-18.50626 62.01563,-38.29882 -2.5576,-13.07505 -5.94758,-34.984684 -31.77344,-66.585942 -5.39869,3.366236 -12.35924,2.034328 -18.73828,2.451172 6.51344,-2.588572 12.17582,-4.508716 15.48046,-8.169922 C 176.02991,33.34268 156.23046,21.582083 132.83594,21.433594 Z M 65.123047,89.501953 c 17.893406,0.458668 42.507163,16.767367 43.519533,30.863277 -1.94049,8.65385 -4.77372,12.8659 -33.853518,13.04688 -34.603321,0.21536 -27.392758,-10.14975 -29.417968,-19.83594 3.473367,-17.264007 6.519513,-21.074228 19.751953,-24.074217 z m 123.916013,0 c 13.23244,2.999989 16.28054,6.810212 19.75391,24.074217 -2.02521,9.68619 5.1834,20.0513 -29.41992,19.83594 -29.07979,-0.18098 -31.91108,-4.39303 -33.85157,-13.04688 1.01238,-14.09591 25.62418,-30.404609 43.51758,-30.863277 z"
       style="display:inline;fill:#1e1e1e;fill-opacity:1;stroke:#000000;stroke-width:0.99941700000000000px;stroke-linecap:butt;stroke-linejoin:miter;stroke-opacity:1"
       id="path857" />
  </g>
  <g
     style="display:inline;opacity:0.996"
     id="layer1"
     inkscape:groupmode="layer"
     inkscape:label="DragonEye">
    <path
       sodipodi:nodetypes="csssssc"
       inkscape:connector-curvature="0"
       id="path847"
       d="m 2.7781257,39.952083 c 0,0 25.1554993,-16.536459 43.1270833,-16.66875 5.093091,-0.03749 12.501423,5.518759 15.726068,8.835423 0.806161,0.829166 -9.513977,3.840637 -16.848921,5.764452 -6.96756,1.827458 -18.959149,8.015928 -22.348622,8.12721 -3.325162,0.109171 -8.767401,-4.784973 -12.4539679,-5.857705 -3.4089515,-0.991951 -7.2016404,-0.20063 -7.2016404,-0.20063"
       style="fill:#e3dedb;fill-opacity:1;stroke:#000000;stroke-width:0.264583px;stroke-linecap:butt;stroke-linejoin:miter;stroke-opacity:1" />
    <path
       sodipodi:nodetypes="ccccc"
       inkscape:connector-curvature="0"
       id="path924"
       d="M 12.766146,34.065104 C 12.313037,31.430052 12.226903,30.313198 12.567709,27.847396 9.8213451,28.89825 6.1483734,32.227364 4.9609383,34.525204 2.970252,37.268781 2.7781257,39.952083 2.7781257,39.952083 4.6498509,38.609519 7.385994,36.92202 12.766146,34.065104 Z"
       style="fill:#00ccff;fill-opacity:1;stroke:#00001a;stroke-width:0.264583px;stroke-linecap:butt;stroke-linejoin:miter;stroke-opacity:1" />
    <path
       sodipodi:nodetypes="ccccc"
       inkscape:connector-curvature="0"
       id="path937"
       d="m 12.440982,28.548598 c 4.023741,-2.478728 9.008511,-5.504132 12.55154,-6.021423 -0.620099,3.022028 -0.698764,2.664752 -0.853427,6.214739 -4.431517,1.852592 -7.117821,3.117821 -11.372949,5.32319 -0.431454,-1.672878 -0.551342,-3.845247 -0.325164,-5.516506 z"
       style="fill:#00ccff;stroke:#000000;stroke-width:0.264583px;stroke-linecap:butt;stroke-linejoin:miter;stroke-opacity:1" />
    <path
       sodipodi:nodetypes="ccccc"
       inkscape:connector-curvature="0"
       id="path939"
       d="m 24.780335,23.826514 c 6.510717,-4.128492 14.624595,-5.507073 22.513935,-6.959327 -1.300001,2.182398 -2.159787,3.751581 -2.513541,6.35 -3.74963,0.03695 -9.157219,1.029534 -20.641634,5.524728 0.09049,-1.478814 0.09218,-2.816758 0.64124,-4.915401 z"
       style="fill:#00ccff;stroke:#000000;stroke-width:0.264583px;stroke-linecap:butt;stroke-linejoin:miter;stroke-opacity:1" />
    <path
       sodipodi:nodetypes="ccccc"
       inkscape:connector-curvature="0"
       id="path941"
       d="m 44.780729,23.217187 c 0.406911,-2.448381 1.060071,-3.780031 1.867136,-5.30344 6.616579,-0.350843 12.584981,-0.33685 17.119541,1.355797 -3.902013,1.811545 -6.836346,1.817546 -12.152133,5.482557 -3.139562,-1.394969 -4.406149,-1.493787 -6.834544,-1.534914 z"
       style="fill:#00ccff;stroke:#000000;stroke-width:0.264583px;stroke-linecap:butt;stroke-linejoin:miter;stroke-opacity:1" />
    <path
       sodipodi:nodetypes="ccccc"
       inkscape:connector-curvature="0"
       id="path943"
       d="m 51.615273,24.752101 c 1.444957,-1.038231 2.899693,-2.063424 4.663139,-2.677003 6.690236,1.278967 8.445233,3.925525 10.837157,5.414165 -3.531731,0.116286 -5.460565,0.121749 -8.759361,1.654085 -2.246979,-1.592836 -4.493957,-3.013447 -6.740935,-4.391247 z"
       style="fill:#00ccff;stroke:#000000;stroke-width:0.264583px;stroke-linecap:butt;stroke-linejoin:miter;stroke-opacity:1" />
    <path
       style="fill:#00d455;fill-opacity:1;stroke:#000000;stroke-width:0.264583px;stroke-linecap:butt;stroke-linejoin:miter;stroke-opacity:1"
       d="m 2.7781257,39.952083 c 3.0466263,0.819658 5.3078539,2.633662 7.6053783,4.327273 2.488457,1.839701 5.450706,5.285515 5.450706,5.285515 -0.05385,-1.252232 0.131298,-1.737827 -0.05008,-2.273725 3.377937,0.807572 5.901538,1.734341 9.013039,3.208001 -0.61094,-0.947731 -0.724929,-1.581588 -1.62088,-2.117202 7.005988,-2.043474 13.787583,-0.924975 15.197232,-0.563695 -0.529651,-0.927229 -1.543103,-1.544943 -2.790801,-2.042919 3.897814,-2.001078 8.416253,-2.295438 12.866506,-2.77731 -0.764422,-1.005097 -3.621611,-1.843698 -3.621611,-1.843698 1.118449,-1.789518 8.05146,-5.169367 10.264562,-6.118108 0.531456,-0.227831 -0.312136,-0.154039 -2.080609,0.413441 -1.768473,0.56748 -4.561707,1.471645 -8.22918,2.433552 -6.967559,1.827457 -18.959148,8.015928 -22.348621,8.12721 -3.325163,0.109171 -8.767402,-4.784973 -12.453969,-5.857705 -3.4089514,-0.991951 -7.2016403,-0.20063 -7.2016403,-0.20063"
       id="path847-60"
       inkscape:connector-curvature="0"
       sodipodi:nodetypes="ccccccccccsssssc" />
    <path
       inkscape:connector-curvature="0"
       d="m 11.415207,29.18586 c -1.086321,1.126318 -2.5066459,3.01471 -1.213362,4.066935 0.745891,0.145409 1.198905,0.189994 1.734777,-0.477491 0.339954,-1.809883 -0.967809,-0.901436 -0.521415,-3.589444 z m -0.283187,2.272213 c 0.141671,0.405974 0.270278,0.168151 0.359668,0.444934 -0.02957,0.137779 -0.102414,0.170976 -0.227376,0.216006 -0.279077,-0.03122 -0.209912,-0.4126 -0.132292,-0.66094 z"
       style="fill:#00c3fa;fill-opacity:1;stroke:#2ad4ff;stroke-width:0.265112;stroke-linecap:butt;stroke-linejoin:miter;stroke-miterlimit:4;stroke-dasharray:0, 2.91624;stroke-dashoffset:0;stroke-opacity:1"
       id="path958" />
    <path
       inkscape:transform-center-y="0.50278972"
       inkscape:transform-center-x="0.70390561"
       inkscape:connector-curvature="0"
       id="path958-2"
       style="display:inline;opacity:0.996;fill:#00c3fa;fill-opacity:1;stroke:#2ad4ff;stroke-width:0.265112;stroke-linecap:butt;stroke-linejoin:miter;stroke-miterlimit:4;stroke-dasharray:0, 2.91624;stroke-dashoffset:0;stroke-opacity:1"
       d="m 23.63692,23.587287 c -1.257676,0.931093 -2.970822,2.558509 -1.869423,3.810178 0.71156,0.266797 1.150958,0.385708 1.789866,-0.183934 0.634672,-1.728709 -0.805353,-1.049117 0.07956,-3.626244 z m -0.655168,2.194059 c 0.07256,0.423817 0.238737,0.210545 0.281108,0.498302 -0.05195,0.130989 -0.129287,0.151679 -0.259976,0.175416 -0.270067,-0.07696 -0.138765,-0.441639 -0.02113,-0.673718 z" />
    <path
       d="m 45.359991,17.982802 c -1.466245,0.546637 -3.562887,1.636334 -2.850936,3.143942 0.609923,0.453312 0.999246,0.68919 1.770855,0.31863 1.088332,-1.485522 -0.483531,-1.231031 1.080081,-3.462572 z m -1.236823,1.927022 c -0.04757,0.427343 0.171139,0.268396 0.132213,0.556639 -0.08618,0.111493 -0.166217,0.109972 -0.29837,0.09661 -0.238219,-0.148696 -0.01111,-0.462793 0.166157,-0.653249 z"
       style="display:inline;opacity:0.996;fill:#00c3fa;fill-opacity:1;stroke:#2ad4ff;stroke-width:0.265112;stroke-linecap:butt;stroke-linejoin:miter;stroke-miterlimit:4;stroke-dasharray:0, 2.91624;stroke-dashoffset:0;stroke-opacity:1"
       id="path958-2-6"
       inkscape:connector-curvature="0" />
    <path
       inkscape:connector-curvature="0"
       id="path958-2-6-9"
       style="display:inline;opacity:0.996;fill:#00c3fa;fill-opacity:1;stroke:#2ad4ff;stroke-width:0.265112;stroke-linecap:butt;stroke-linejoin:miter;stroke-miterlimit:4;stroke-dasharray:0, 2.91624;stroke-dashoffset:0;stroke-opacity:1"
       d="m 58.759905,19.987169 c -1.387969,-0.722656 -3.601417,-1.549693 -4.244064,-0.01126 0.0719,0.756523 0.157503,1.203605 0.949472,1.528382 1.832034,-0.18681 0.590266,-1.183565 3.294592,-1.517117 z m -2.25933,0.372252 c -0.349193,0.250899 -0.08468,0.306848 -0.324783,0.471001 -0.140509,0.01068 -0.192979,-0.04981 -0.271582,-0.156847 -0.04914,-0.276486 0.33621,-0.31822 0.596367,-0.314149 z" />
    <path
       d="m 63.900004,26.639935 c -1.265102,-0.920979 -3.330993,-2.067906 -4.195221,-0.64212 -0.04138,0.758805 -0.02319,1.213646 0.71169,1.652558 1.839446,0.08764 0.759667,-1.082656 3.483531,-1.010438 z m -2.289564,0.03221 c -0.382614,0.196194 -0.129352,0.290849 -0.391202,0.417478 -0.140538,-0.01032 -0.183443,-0.07791 -0.245243,-0.195485 -0.0075,-0.280718 0.379785,-0.264697 0.636445,-0.221993 z"
       style="display:inline;opacity:0.996;fill:#00c3fa;fill-opacity:1;stroke:#2ad4ff;stroke-width:0.265112;stroke-linecap:butt;stroke-linejoin:miter;stroke-miterlimit:4;stroke-dasharray:0, 2.91624;stroke-dashoffset:0;stroke-opacity:1"
       id="path958-2-6-9-5"
       inkscape:connector-curvature="0" />
    <path
       sodipodi:nodetypes="ccsccccccccccccccccscccccscsccccsccccscccccsccccccc"
       inkscape:connector-curvature="0"
       transform="scale(0.26458333)"
       d="m 166.15728,89.822627 c -3.2401,0.23997 -6.52749,0.600997 -9.85156,1.074218 0.0632,0.953819 -0.58619,0.19424 -2.12603,0.941046 -3.54973,1.721578 -5.5872,2.846866 -8.19624,0.848017 -1.07771,0.218594 -2.15817,0.445594 -3.24023,0.683593 7.33443,7.427329 11.17819,14.644279 11.00287,24.335579 h 0.0645 c -0.2654,6.80136 -1.88928,13.10276 -5.4043,18.27734 -6.30929,8.05286 -14.3845,13.18229 -23.85352,14.31641 l 0.006,0.0625 c -9.06511,0.89389 -17.57893,-0.74101 -24.2207,-6.38477 l -0.0449,0.0625 C 93.916924,138.94325 89.536907,132.46983 87.796875,124.75781 l -0.0625,0.0137 c -1.020612,-5.00921 -1.433429,-8.50344 -0.549103,-13.12502 -7.558279,3.25256 -14.384807,6.82798 -21.285798,10.20937 -1.456486,1.02027 -3.108362,1.80455 -4.873047,2.41211 -2.809345,1.41157 -5.515508,2.80724 -8.158203,4.18945 6.175332,1.71506 9.796583,0.73408 17.983338,1.69691 6.531411,-1.5672 1.988266,-8.24726 7.5625,-7.875 3.922094,0.26191 5.68407,1.81696 6.958985,4.82422 1.059308,2.93922 2.052805,6.219 3.535156,9.90234 -7.76565,4.96953 -10.123396,4.61904 -7.189453,11.40234 4.051677,8.21844 -0.669225,15.19387 -6.628786,21.54078 0.638749,0.2846 1.890625,0.79297 1.890625,0.79297 3.516708,-1.81949 5.602229,-2.23195 8.310427,-4.01343 2.35994,-1.5524 4.835955,-3.34704 8.160156,-5.82813 3.664483,-5.62913 -4.22891,-7.35121 0.07422,-10.91406 2.846094,-2.35648 5.094172,-2.56773 7.839838,-1.5 2.05872,1.49313 4.95573,2.58249 7.79883,4.05664 -2.59198,8.63288 -4.75804,8.62171 1.36496,11.7012 3.34772,-1.35249 6.89874,-2.82874 10.50391,-4.33008 -0.19303,-0.48044 -0.0555,0.32796 0.0921,-0.53518 0.66265,-3.87458 2.3896,-5.46787 5.51172,-6.42774 3.03234,-0.75237 6.39698,-1.407 10.21289,-2.5039 0.72052,1.43059 1.06669,1.19511 1.56613,2.27541 4.68743,-1.90641 9.33528,-3.74595 13.81445,-5.41601 -0.73032,-0.0236 -1.24424,1.00611 -1.99581,-0.11917 -1.85429,-2.77627 -2.01717,-4.88807 -1.04102,-7.20312 1.58326,-1.81596 2.96667,-4.32246 4.66992,-6.73047 8.38426,3.83479 9.36851,6.00633 13.48047,-0.13477 5.63359,-9.39374 18.27614,-7.48205 27.74805,-5.1875 -10.259,-6.13852 -13.2398,-7.57513 -23.60352,-11.44141 -6.71673,-0.0302 -3.89081,7.53815 -9.2168,5.85157 -3.74742,-1.18669 -5.08973,-3.11574 -5.61328,-6.33985 -0.33029,-3.10678 -0.51574,-6.52886 -1.08008,-10.45898 8.72434,-2.98121 10.93083,-2.08091 9.69336,-9.367189 -0.64209,-2.8981 -0.0649,-3.933994 0.8858,-6.353154 z m -9.9522,57.540653 c -0.0248,0.009 -0.0496,0.0165 -0.0742,0.0254 0.0246,-0.009 0.0496,-0.0166 0.0742,-0.0254 z"
       style="display:inline;opacity:0.996;fill:#ecebe8;fill-opacity:1;stroke:#000000;stroke-width:1;stroke-linecap:butt;stroke-linejoin:miter;stroke-miterlimit:4;stroke-dasharray:0, 11;stroke-dashoffset:0;stroke-opacity:1"
       id="path847-2" />
    <path
       sodipodi:nodetypes="cccccccccccccccccccccccccccccccscccccccccccccccccccccccccccccccccccccccccc"
       inkscape:connector-curvature="0"
       d="m 15.420431,46.203858 c 0.137113,-0.205139 0.113326,-0.474143 -0.05407,-0.611396 -0.0032,-0.0026 -0.0065,-0.0053 -0.0097,-0.0078 0.08229,-0.0054 0.157407,-0.04659 0.207114,-0.113531 0.09813,-0.132244 0.07182,-0.32623 -0.05876,-0.433225 -0.07203,-0.05899 -0.164788,-0.08151 -0.251954,-0.06115 0.04099,-0.01861 0.07695,-0.0479 0.104471,-0.0851 0.08932,-0.121027 0.06971,-0.294524 -0.0438,-0.387553 -0.113479,-0.09299 -0.277856,-0.07036 -0.367235,0.05055 -0.0081,0.01099 -0.01545,0.02262 -0.02191,0.03476 l -0.01742,-0.02085 c 0.02683,-0.01799 0.05049,-0.04057 0.07,-0.06683 0.0981,-0.132197 0.07184,-0.326113 -0.05865,-0.433135 -0.130519,-0.107041 -0.315877,-0.08661 -0.413978,0.04563 -0.06147,0.08288 -0.07626,0.194539 -0.0391,0.295195 -0.07139,0.247679 0.03228,0.358776 -0.383062,0.374583 -0.279456,0.0304 -0.38135,-0.220338 -0.504765,-0.355309 l 0.188228,-0.265621 -0.02483,-0.339045 c -0.07367,0.16719 -0.194712,0.330739 -0.292538,0.198083 l -0.06391,0.122591 0.03425,0.13279 -0.05554,0.06965 -0.07661,-0.02675 -0.06467,0.09381 0.04552,0.07514 -0.07065,0.130213 -0.127644,0.01495 -0.131828,0.138108 0.03543,0.141671 c -0.129628,0.104265 -0.223915,0.209108 -0.256068,0.363415 0.08589,-0.08034 0.170101,0.03066 0.266579,-0.1431 0.09576,-0.172456 0.174761,-0.138187 0.267941,-0.163792 0.211192,0.01803 0.347431,0.13034 0.499906,0.303667 0.29905,0.291192 -0.06745,0.364099 -0.102586,0.521605 -0.0474,0.01345 -0.09028,0.04387 -0.121327,0.0861 -0.07415,0.100905 -0.06279,0.241355 0.02537,0.313714 0.03414,0.02801 0.07659,0.04275 0.121112,0.04207 -0.07781,0.132212 -0.04506,0.307917 0.07589,0.40711 0.111342,0.09123 0.265956,0.09138 0.371182,3.5e-4 l 0.103726,0.02444 c 0.02091,0.03687 0.04791,0.0691 0.07976,0.09523 0.151728,0.124349 0.37727,0.08557 0.503818,-0.08662 0.05625,-0.07659 0.08573,-0.170849 0.08278,-0.264818 l 0.02983,-0.01871 c 0.167677,0.0628 0.365833,-0.0075 0.486799,-0.172627 0.0044,-0.0061 0.0088,-0.01221 0.01298,-0.01845 z m -0.750777,-0.220516 -0.192359,0.0085 0.08115,-0.194642 z m 0.175421,-0.227965 -0.0823,-0.154473 0.19686,-0.06817 z m 0.0214,-0.526919 c -0.144092,0.121152 -0.03768,0.03428 -0.224832,0.101477 l -0.100531,-0.08045 c 0.200088,-0.02695 0.219927,-0.06147 0.320029,-0.119849 z m -0.721771,0.791618 c 0.04466,-0.128135 0.07845,-0.196488 0.08305,-0.428752 l 0.146052,0.133319 c -0.04985,0.117619 -0.06862,0.176219 -0.229106,0.295434 z m 0.545884,-1.083472 c -0.125329,0.144276 -0.06894,0.08638 -0.244392,0.184703 l -0.11145,-0.0658 c 0.193887,-0.06075 0.260982,-0.139608 0.351672,-0.214366 z m -0.709463,0.837112 -0.103998,0.01459 0.165318,-0.282217 z"
       style="display:inline;fill:#00c84b;stroke:#000000;stroke-width:0.0734276;stroke-linecap:butt;stroke-linejoin:miter;stroke-miterlimit:4;stroke-dasharray:0, 0.80770500000000001;stroke-dashoffset:0;stroke-opacity:1;fill-opacity:1"
       id="path1263" />
    <path
       id="path1263-5"
       style="display:inline;opacity:0.996;fill:#00c84b;stroke:#000000;stroke-width:0.065291;stroke-linecap:butt;stroke-linejoin:miter;stroke-miterlimit:4;stroke-dasharray:0, 0.71820300000000004;stroke-dashoffset:0;stroke-opacity:1;fill-opacity:1"
       d="m 22.067098,47.596434 c 0.07449,-0.200638 -0.01456,-0.404072 -0.202401,-0.462365 -0.0036,-0.0012 -0.0072,-0.0022 -0.0109,-0.0032 0.07411,-0.0284 0.132734,-0.08257 0.161596,-0.149497 0.05696,-0.132196 -0.01566,-0.276213 -0.162169,-0.321634 -0.08081,-0.02503 -0.171518,-0.01546 -0.24638,0.02601 0.03295,-0.02657 0.05861,-0.06002 0.07456,-0.09718 0.05167,-0.120841 -0.0097,-0.250796 -0.137028,-0.290296 -0.127322,-0.03947 -0.272439,0.02639 -0.3242,0.147168 -0.0047,0.01095 -0.0085,0.02221 -0.01141,0.03361 l -0.02118,-0.0112 c 0.02012,-0.02193 0.03617,-0.04653 0.0475,-0.07279 0.05694,-0.132151 -0.01562,-0.276127 -0.162051,-0.321593 -0.146466,-0.04547 -0.311375,0.02483 -0.368304,0.157019 -0.03567,0.08284 -0.02133,0.174513 0.03792,0.242348 -0.0036,0.214648 0.119272,0.271163 -0.257734,0.405252 -0.248724,0.105677 -0.404848,-0.06058 -0.551779,-0.129976 l 0.106261,-0.262925 -0.10752,-0.257909 c -0.02579,0.152363 -0.09593,0.315758 -0.218814,0.240669 l -0.02798,0.114617 0.06459,0.09383 -0.03354,0.07075 -0.07695,0.0015 -0.03587,0.09233 0.06054,0.04543 -0.03226,0.122554 -0.113339,0.04911 -0.0864,0.146659 0.06791,0.100426 c -0.09284,0.119539 -0.153117,0.229181 -0.144044,0.359297 0.05871,-0.08801 0.163683,-0.02587 0.208748,-0.190056 0.04472,-0.162951 0.125757,-0.159302 0.204824,-0.206638 0.198212,-0.0478 0.351243,1.25e-4 0.534415,0.09101 0.347068,0.140117 0.02913,0.304554 0.03627,0.438047 -0.04011,0.02441 -0.07184,0.06078 -0.08976,0.102903 -0.04279,0.100661 0.0027,0.207183 0.101675,0.237942 0.03832,0.01189 0.08094,0.011 0.121598,-0.0026 -0.03832,0.126215 0.03562,0.254048 0.17135,0.296188 0.124924,0.03872 0.266776,-0.0065 0.340541,-0.10851 l 0.101249,-0.01128 c 0.0284,0.0227 0.06121,0.04001 0.09696,0.0511 0.170246,0.05279 0.367427,-0.04363 0.440465,-0.215402 0.03246,-0.07639 0.03593,-0.158758 0.0097,-0.231392 l 0.02269,-0.02336 c 0.169489,-2.9e-5 0.333691,-0.113027 0.403357,-0.277692 0.0026,-0.0061 0.005,-0.01213 0.0073,-0.01823 z m -0.743737,0.04755 -0.174304,0.06304 0.02578,-0.176022 z m 0.103925,-0.229719 -0.114096,-0.0967 0.163526,-0.111019 z m -0.112057,-0.418411 c -0.101885,0.13699 -0.02599,0.03786 -0.180859,0.14526 l -0.112314,-0.03346 c 0.176788,-0.07972 0.186358,-0.112531 0.263583,-0.187534 z m -0.464176,0.83071 c 0.0089,-0.113314 0.02285,-0.176678 -0.03098,-0.359696 l 0.167281,0.06147 c -0.01633,0.106607 -0.0189,0.157944 -0.136304,0.298223 z m 0.22991,-1.00744 c -0.0789,0.149578 -0.04164,0.08777 -0.178001,0.216094 l -0.118667,-0.0188 c 0.162654,-0.104337 0.204486,-0.185683 0.268984,-0.270736 z m -0.441519,0.862686 -0.09174,0.04189 0.0811,-0.269191 z"
       inkscape:connector-curvature="0"
       sodipodi:nodetypes="cccccccccccccccccccccccccccccccscccccccccccccccccccccccccccccccccccccccccc" />
    <path
       sodipodi:nodetypes="cccccccccccccccccccccccccccccccscccccccccccccccccccccccccccccccccccccccccc"
       inkscape:connector-curvature="0"
       d="m 44.114323,41.846701 c -0.02916,-0.241857 -0.222856,-0.416127 -0.440234,-0.396076 -0.0042,3.19e-4 -0.0083,8.53e-4 -0.0125,0.0013 0.05924,-0.06165 0.08979,-0.143544 0.08406,-0.225955 -0.01137,-0.162746 -0.158035,-0.281991 -0.327552,-0.266304 -0.0935,0.0087 -0.179014,0.05779 -0.232278,0.133421 0.01915,-0.04198 0.0275,-0.08802 0.02424,-0.133737 -0.01077,-0.148602 -0.138951,-0.258009 -0.286324,-0.244385 -0.147322,0.01363 -0.258072,0.145054 -0.247412,0.293629 9.89e-4,0.01349 0.003,0.0269 0.006,0.04005 l -0.02691,-0.0026 c 0.0088,-0.0316 0.01208,-0.06424 0.0098,-0.09657 -0.01136,-0.162694 -0.157944,-0.281922 -0.327412,-0.266315 -0.169504,0.01561 -0.2977,0.160209 -0.286317,0.322938 0.0071,0.101973 0.06871,0.191626 0.162766,0.236999 0.10711,0.225924 0.258755,0.232036 -0.04807,0.534761 -0.193543,0.217709 -0.434952,0.111225 -0.617256,0.102025 l -0.0296,-0.320666 -0.240198,-0.223254 c 0.05284,0.170397 0.06714,0.371445 -0.09411,0.345931 l 0.03119,0.13188 0.112791,0.07024 0.003,0.08842 -0.07595,0.03478 0.01183,0.11198 0.08379,0.02139 0.03102,0.142022 -0.08771,0.100194 -0.01054,0.190563 0.119492,0.07571 c -0.03094,0.164994 -0.03453,0.305595 0.04161,0.437703 0.01316,-0.117311 0.149884,-0.09762 0.11017,-0.28868 -0.03941,-0.189631 0.04327,-0.220751 0.09771,-0.304324 0.173016,-0.135425 0.350329,-0.151309 0.579849,-0.135278 0.418346,-0.0032 0.18608,0.30581 0.262025,0.442284 -0.02742,0.04282 -0.04031,0.0945 -0.03646,0.146273 0.0092,0.123669 0.109545,0.215406 0.224074,0.2049 0.04435,-0.0041 0.08637,-0.0234 0.119923,-0.05514 0.02686,0.148469 0.166515,0.250212 0.323587,0.235748 0.144547,-0.01338 0.262697,-0.121787 0.283644,-0.26026 l 0.09514,-0.05545 c 0.04003,0.0115 0.08167,0.01544 0.123038,0.01162 0.196993,-0.01821 0.343901,-0.204033 0.32817,-0.415086 -0.007,-0.09385 -0.04602,-0.181453 -0.109584,-0.246097 l 0.01058,-0.03421 c 0.169006,-0.0731 0.274459,-0.262054 0.259054,-0.464198 -5.39e-4,-0.0074 -0.0013,-0.01482 -0.0021,-0.02221 z m -0.717145,0.370375 -0.141326,0.141041 -0.06505,-0.195129 z m -0.01481,-0.284946 -0.163634,-0.0519 0.105831,-0.186555 z m -0.327479,-0.389081 c -0.03097,0.187134 -0.0064,0.05078 -0.105451,0.229834 l -0.129255,0.01345 c 0.135196,-0.159556 0.127815,-0.197988 0.166155,-0.309687 z m -0.03456,1.068526 c -0.04951,-0.122307 -0.06831,-0.194544 -0.216355,-0.362654 l 0.198512,-0.0079 c 0.03868,0.118484 0.06259,0.173259 0.01784,0.370521 z m -0.290172,-1.152269 c -0.0016,0.190381 0.0037,0.109707 -0.06609,0.302642 l -0.128029,0.03151 c 0.1084,-0.179205 0.108177,-0.282272 0.128643,-0.398991 z m 0.0045,1.092185 -0.06989,0.08335 -0.05792,-0.31637 z"
       style="display:inline;opacity:0.996;fill:#00c84b;fill-opacity:1;stroke:#000000;stroke-width:0.0734272;stroke-linecap:butt;stroke-linejoin:miter;stroke-miterlimit:4;stroke-dasharray:0, 0.807705;stroke-dashoffset:0;stroke-opacity:1"
       id="path1263-5-3" />
    <path
       id="path1263-5-3-6"
       style="display:inline;opacity:0.996;fill:#00c84b;stroke:#000000;stroke-width:0.0734273;stroke-linecap:butt;stroke-linejoin:miter;stroke-miterlimit:4;stroke-dasharray:0, 0.80770600000000004;stroke-dashoffset:0;stroke-opacity:1;fill-opacity:1"
       d="m 34.697997,45.778459 c 0.04872,-0.241886 -0.07566,-0.481591 -0.282705,-0.544799 -0.0039,-0.0012 -0.0079,-0.0024 -0.01194,-0.0035 0.07404,-0.03631 0.127832,-0.102983 0.148317,-0.183815 0.04041,-0.159639 -0.05776,-0.329007 -0.219221,-0.378255 -0.08906,-0.02714 -0.183409,-0.01266 -0.256266,0.03934 0.03082,-0.03282 0.05293,-0.07358 0.06422,-0.118457 0.03653,-0.145909 -0.04763,-0.29889 -0.187996,-0.341719 -0.14033,-0.0428 -0.283723,0.04069 -0.320359,0.186515 -0.0033,0.01325 -0.0057,0.02679 -0.007,0.04049 l -0.02404,-0.01265 c 0.01796,-0.02685 0.03124,-0.05673 0.0393,-0.08844 0.0404,-0.159586 -0.05768,-0.328911 -0.219086,-0.378215 -0.161437,-0.04931 -0.325067,0.04013 -0.365457,0.199755 -0.0253,0.100038 0.0035,0.208924 0.0762,0.287857 0.02825,0.256209 0.166409,0.319485 -0.21167,0.492184 -0.246853,0.134472 -0.436508,-0.05861 -0.602004,-0.136457 l 0.07297,-0.317267 -0.152011,-0.304076 c -0.0045,0.182647 -0.05418,0.379954 -0.195131,0.294515 l -0.01244,0.137688 0.0822,0.109764 -0.02485,0.08555 -0.08103,0.0044 -0.0241,0.111363 0.07069,0.05216 -0.01577,0.147302 -0.112348,0.06241 -0.06934,0.177887 0.08668,0.117525 c -0.08019,0.145753 -0.127478,0.27859 -0.09848,0.433522 0.04885,-0.106984 0.168969,-0.03639 0.192053,-0.23379 0.02291,-0.195919 0.109014,-0.1943 0.185438,-0.253442 0.202159,-0.06371 0.37089,-0.0117 0.577857,0.09055 0.38737,0.155459 0.0762,0.362368 0.103656,0.521392 -0.03872,0.03048 -0.06679,0.07493 -0.07943,0.125797 -0.03016,0.121533 0.0338,0.24709 0.142859,0.280449 0.04224,0.0129 0.0871,0.01038 0.128008,-0.0072 -0.02163,0.151876 0.07552,0.301891 0.225124,0.347588 0.137684,0.04199 0.280719,-0.01672 0.343376,-0.140957 l 0.105219,-0.01689 c 0.03338,0.02613 0.07059,0.04567 0.110001,0.05771 0.187636,0.05724 0.381445,-0.06446 0.432934,-0.271852 0.02288,-0.09224 0.01425,-0.190621 -0.02423,-0.276398 l 0.02047,-0.02865 c 0.178959,-0.0057 0.335445,-0.14617 0.384462,-0.344909 0.0017,-0.0073 0.0035,-0.01464 0.005,-0.022 z m -0.778202,0.08182 -0.174647,0.08107 9.54e-4,-0.210875 z m 0.07546,-0.277573 -0.134898,-0.111524 0.156099,-0.137964 z m -0.180754,-0.495407 c -0.08714,0.166876 -0.0218,0.04604 -0.169288,0.179411 l -0.123586,-0.03613 c 0.174777,-0.101066 0.179981,-0.140548 0.250331,-0.232631 z m -0.366163,1.006743 c -0.0075,-0.135492 -0.0022,-0.211557 -0.08638,-0.428092 l 0.185802,0.0677 c -0.0013,0.12774 0.0036,0.189073 -0.09942,0.360396 z m 0.09243,-1.20969 c -0.06099,0.181118 -0.03088,0.106118 -0.155703,0.263818 l -0.128104,-0.01843 c 0.156169,-0.12998 0.188206,-0.228429 0.243618,-0.332076 z m -0.337467,1.04413 -0.09062,0.05307 0.04547,-0.323896 z"
       inkscape:connector-curvature="0"
       sodipodi:nodetypes="cccccccccccccccccccccccccccccccscccccccccccccccccccccccccccccccccccccccccc" />
  </g>
  <g
     style="display:inline;opacity:0.994;mix-blend-mode:normal;filter:url(#filter954)"
     inkscape:label="EyeBall"
     id="layer3"
     inkscape:groupmode="layer">
    <path
       inkscape:connector-curvature="0"
       d="m 36.759513,24.461556 c -4.236023,1.02465 -8.551014,2.565353 -12.620418,4.280358 a 8.1359377,8.1359377 0 0 0 -0.326595,2.280481 8.1359377,8.1359377 0 0 0 8.135937,8.135938 8.1359377,8.1359377 0 0 0 8.135938,-8.135938 8.1359377,8.1359377 0 0 0 -3.324862,-6.560839 z"
       style="display:inline;fill:#ff2a2a;fill-opacity:1;stroke:#000000;stroke-width:0.264583px;stroke-linecap:butt;stroke-linejoin:miter;stroke-opacity:1"
       id="path847-6" />
    <path
       sodipodi:nodetypes="ccccccccccccccscccccccccc"
       inkscape:connector-curvature="0"
       transform="scale(0.26458333)"
       d="m 127.60434,96.518517 c -0.20985,0.06184 -0.41907,0.123148 -0.62891,0.185547 0.26338,0.963122 1.65076,2.516026 1.11441,2.086952 -1.3074,-0.860474 -2.16981,-0.961627 -3.24332,-1.430702 -2.49595,0.764188 -4.98848,1.563682 -7.47656,2.398437 0.21793,0.14961 0.46541,0.310369 0.76758,0.486329 -0.48719,-0.12782 -0.89657,-0.21532 -1.3125,-0.304688 -1.21779,0.411058 -2.43238,0.829778 -3.64649,1.255858 3.75476,0.45507 5.24129,0.80382 8.97184,1.90531 l 1.85352,8.02539 0.30859,4.62891 -2.7793,-3.08594 v 4.01172 c -0.86247,1.35763 -1.73116,2.6964 -3.39453,1.85156 -1.15445,-0.19782 -2.04566,-1.31849 -1.28515,-2.04492 1.57706,-1.50639 1.67396,-2.8704 1.43945,-4.34766 -0.63884,1.1553 -1.72428,2.86288 -3.55078,2.99805 -7.32916,-1.67578 -11.12096,6.53562 -5.62696,11.79297 5.99348,4.13835 10.84389,4.11544 21.06055,-0.99023 -3.18616,-0.27039 -7.14482,0.0601 -6.94922,-1.70313 1.30635,0.35887 13.68314,-0.58495 14.66602,-6.32226 -2.8927,-0.0657 -3.55303,1.18951 -5.875,0.23046 7.59234,-1.49904 5.59178,-8.9428 5.18359,-12.72265 -2.87931,2.05165 -0.70648,3.4271 -4.33984,5.70703 3.3235,-8.40778 -2.0222,-12.877971 -5.25699,-14.612343 z"
       style="fill:#d40000;stroke:#d40000;stroke-width:0.999999px;stroke-linecap:butt;stroke-linejoin:miter;stroke-opacity:1"
       id="path933" />
    <path
       sodipodi:nodetypes="ccccc"
       inkscape:connector-curvature="0"
       id="path936"
       d="m 30.729086,28.024275 c 0.04967,0.63944 0.108431,0.779549 -0.366064,1.037183 -1.1931,0.06598 -1.65407,-0.276408 -2.460768,-0.447411 0.570922,-0.01495 1.228373,0.125858 1.545606,-0.345729 0.162459,-1.002016 0.967588,-0.839717 1.281226,-0.244043 z"
       style="fill:#d40000;stroke:#d40000;stroke-width:0.264583px;stroke-linecap:butt;stroke-linejoin:miter;stroke-opacity:1" />
  </g>
</svg>
